<svg viewBox="0 0 100 100" xmlns="http://www.w3.org/2000/svg">
  <defs>
    <linearGradient id="nestGrad" x1="0%" y1="0%" x2="100%" y2="100%">
      <stop offset="0%" stop-color="#d4a383" />
      <stop offset="100%" stop-color="#906956" />
    </linearGradient>
    <filter id="logoShadow" x="-20%" y="-20%" width="140%" height="140%">
      <feDropShadow dx="0" dy="6" stdDeviation="4" flood-color="#1b100c" flood-opacity="0.12" />
    </filter>
  </defs>
  <g filter="url(#logoShadow)">
    <path
      d="M15,55 C15,75 30,85 50,85 C70,85 85,75 85,55 C85,68 70,78 50,78 C30,78 15,68 15,55 Z"
      fill="url(#nestGrad)"
    />
    <path
      d="M20,62 C30,76 70,76 80,62"
      stroke="url(#nestGrad)"
      stroke-width="6"
      stroke-linecap="round"
      fill="none"
    />
    <path
      d="M10,50 C25,72 75,72 90,50"
      stroke="url(#nestGrad)"
      stroke-width="4"
      stroke-linecap="round"
      fill="none"
    />
    <path
      d="M50,22 L26,45 L34,45 L34,68 L66,68 L66,45 L74,45 Z"
      fill="#1b100c"
    />
    <path
      d="M38,47 L50,36 L62,47 L62,65 L38,65 Z"
      fill="#d4a383"
    />
    <path
      d="M46,55 L54,55 L54,65 L46,65 Z"
      fill="#1b100c"
    />
    <rect x="58" y="28" width="6" height="12" fill="#906956" />
  </g>
</svg>
